# xmcd CD database file
#
# Track frame offsets:
#	150
#	14332
#	25307
#	44017
#	66105
#	74895
#	83857
#	98920
#	116420
#	125815
#	136755
#	151550
#	161932
#	174765
#	185937
#	199610
#	208982
#	221327
#	238217
#	249882
#	261115
#	275525
#	287837
#	295667
#	310697
#
# Disc length: 4311 seconds
#
# Revision: 3
# Processed by: cddbd v1.4PL0 Copyright (c) Steve Scherf et al.
# Submitted via: CDex 1.51
#
DISCID=7b10d519
DTITLE=Lonnie Donegan - The Very Best Of   CD2
DYEAR=1900
DGENRE=
TTITLE0=Battle Of New Orleans
TTITLE1=Sal´s Got A Sugar Lip
TTITLE2=Take This Hammer
TTITLE3=You Pass Me By
TTITLE4=San Miguel
TTITLE5=Talking Guitar Blues (UK Version)
TTITLE6=My Old Man's A Dustman
TTITLE7=I Wanna Go Home
TTITLE8=Lorelei
TTITLE9=Sorry But I'm Gonna Have To Pass
TTITLE10=Lively !
TTITLE11=Virgin Mary
TTITLE12=Have A Drink On Me
TTITLE13=Micheal Row The Boat
TTITLE14=Lumbered
TTITLE15=The Comancheros
TTITLE16=The Party's Over
TTITLE17=I´ll Never Fall In Love Again
TTITLE18=Pick A Bale Of Cotton
TTITLE19=This Train
TTITLE20=Noah Found Grace In The Eyes Of The Lord
TTITLE21=Beans In My Ears
TTITLE22=She Was T-Bone Talking Women
TTITLE23=Farewell (Fare The Well)
TTITLE24=World Cup Willie
EXTD=
EXTT0=
EXTT1=
EXTT2=
EXTT3=
EXTT4=
EXTT5=
EXTT6=
EXTT7=
EXTT8=
EXTT9=
EXTT10=
EXTT11=
EXTT12=
EXTT13=
EXTT14=
EXTT15=
EXTT16=
EXTT17=
EXTT18=
EXTT19=
EXTT20=
EXTT21=
EXTT22=
EXTT23=
EXTT24=
PLAYORDER=
